<svg xmlns:xlink="http://www.w3.org/1999/xlink" viewBox="0 0 124 24.574" fill="none" xmlns="http://www.w3.org/2000/svg" aria-hidden="true" width="126" height="25">
<path d="M75.4147 24.5738C75.4147 21.2599 75.6494 18.6088 76.1189 16.6205C76.6712 14.3836 77.693 12.1053 79.1843 9.78554C80.5374 7.74197 82.3463 6.0436 84.6108 4.69042C87.2343 3.14393 90.0649 2.37069 93.1026 2.37069H97.0793L97.9906 24.5738H86.5991L86.7234 16.4133H89.4573L89.1674 10.4897H88.7946C88.187 10.5726 87.6071 10.8349 87.0548 11.2768C86.5024 11.7463 86.033 12.3538 85.6464 13.0994C85.2045 13.8451 84.8731 14.715 84.6522 15.7091C84.3484 16.8966 84.1275 18.305 83.9894 19.9344C83.8789 21.039 83.8099 22.5855 83.7823 24.5738H75.4147ZM77.8173 13.8865L74.959 2.37069H82.7467L84.8179 11.5668L77.8173 13.8865Z" fill="#F3F3F3"></path>
<path d="M64.4215 24.5738V11.4839C64.4215 11.0973 64.3249 10.8211 64.1316 10.6554C63.9383 10.4897 63.6759 10.4069 63.3445 10.4069H60.5277V24.5738H52.0773V2.37069H66.3685C68.2463 2.37069 69.8066 3.01966 71.0493 4.31761C72.2644 5.58794 72.872 7.14823 72.872 8.99849V24.5738H64.4215Z" fill="#F3F3F3"></path>
<path d="M49.7962 2.37069V10.5312H47.1451V24.5738H38.7361V10.5312H30.8656V2.37069H49.7962Z" fill="#F3F3F3"></path>
<path d="M6.29643 10.4068C8.14669 10.324 9.41702 10.0202 10.1074 9.49552C10.7702 9.05367 11.1154 8.28043 11.143 7.17579C11.1154 6.37494 11.0878 5.436 11.0602 4.35898C11.0325 3.91713 10.9911 3.25435 10.9359 2.37064H18.5164C18.5717 3.06104 18.5993 3.84808 18.5993 4.73179C18.5993 5.28411 18.5993 6.1402 18.5993 7.30007C18.5993 9.01225 18.1988 10.4897 17.398 11.7324C16.5419 13.0027 15.2854 14.0107 13.6284 14.7563C11.9162 15.502 9.77602 15.9438 7.20775 16.0819L6.29643 10.4068ZM10.066 17.0346L13.1728 16.7861C14.9402 16.6204 16.3762 16.1924 17.4808 15.502C18.5579 14.8944 19.3449 14.0521 19.842 12.9751C20.3115 11.9533 20.5462 10.7244 20.5462 9.28841C20.5462 6.41636 20.4772 4.11044 20.3391 2.37064H28.6652C28.6929 3.77905 28.7205 5.22888 28.7481 6.72013C28.7757 7.43814 28.7895 8.08712 28.7895 8.66705C28.7895 12.478 27.9749 15.6124 26.3455 18.0702C24.8543 20.3347 22.6726 22.0055 19.8006 23.0825C17.2047 24.0767 14.0703 24.5738 10.3974 24.5738H2.48544L1.95503e-05 2.37064H8.36762L10.066 17.0346Z" fill="#F3F3F3"></path>
<path d="M108.992 24.5738H100.708V13.5553H108.992V24.5738ZM113.886 2.37069C113.78 2.83512 113.722 3.31845 113.722 3.81502C113.722 7.38375 116.615 10.2769 120.184 10.2769C120.363 10.2769 120.54 10.2668 120.715 10.2525V24.5738H112.265V10.5308H100.459L100.501 2.37069H113.886Z" fill="#F3F3F3"></path>
<circle cx="120.184" cy="3.815" r="3.815" fill="#FF173E"></circle>
</svg>
